Coordinates
version=1
nRows=26
nColumns=22
inDegrees=yes

Units are S.I. units (second, meters, Newtons, ...)
If the header above contains a line with 'inDegrees', this indicates whether rotational values are in degrees (yes) or radians (no).

endheader
time	pelvis_tilt	pelvis_list	pelvis_rotation	pelvis_tx	pelvis_ty	pelvis_tz	hip_flexion_r	hip_adduction_r	hip_rotation_r	knee_angle_r	ankle_angle_r	subtalar_angle_r	hip_flexion_l	hip_adduction_l	hip_rotation_l	knee_angle_l	ankle_angle_l	subtalar_angle_l	lumbar_extension	lumbar_bending	lumbar_rotation
      4.12000000	      2.50781843	      0.79474598	      2.56189580	     -1.02474620	      0.90196543	     -0.06129627	    -12.27689836	      2.49370296	     -0.08477808	    -31.90231737	     12.90304269	      4.25992107	     27.73690330	      0.78629201	    -17.39189371	    -25.55808589	     11.56474278	     -5.70210316	    -14.24008237	     -0.89892075	     -0.84406447
      4.13000000	      2.50468385	      0.37009129	      2.11391651	     -1.03683393	      0.90136118	     -0.05920886	    -11.94234774	      2.81349022	     -0.37534646	    -31.31156739	     14.99650944	      3.59480172	     27.98209328	     -0.02240930	    -18.47980155	    -24.78809931	     11.94194663	     -5.05665768	    -14.57420905	     -0.47001718	     -0.58974277
      4.14000000	      2.49508743	     -0.06015130	      1.68747571	     -1.04862302	      0.90096830	     -0.05714675	    -11.56577025	      3.15900188	     -0.62364197	    -30.74001828	     16.82187844	      2.93450354	     28.16502922	     -0.83208753	    -19.64757123	    -24.02454741	     12.37992543	     -4.53841838	    -14.85992296	     -0.04534065	     -0.37602984
      4.15000000	      2.48883191	     -0.48378370	      1.30507341	     -1.06010255	      0.90076532	     -0.05516914	    -11.17113800	      3.52617366	     -0.84925006	    -30.18152983	     18.41720204	      2.19537271	     28.28993155	     -1.60444602	    -20.79045839	    -23.30553987	     12.84073706	     -4.10695556	    -15.11338234	      0.36732502	     -0.19444991
      4.16000000	      2.47502353	     -0.85744813	      0.94126143	     -1.07121206	      0.90071505	     -0.05324995	    -10.75135925	      3.87190673	     -1.01524866	    -29.65380771	     19.77207237	      1.53077933	     28.38233603	     -2.32086097	    -21.97739180	    -22.70222303	     13.27172604	     -3.85273780	    -15.31618672	      0.71256757	     -0.04297857
      4.17000000	      2.47460645	     -1.18692173	      0.68899136	     -1.08191541	      0.90082293	     -0.05152920	    -10.37882824	      4.23098644	     -1.18588100	    -29.08135855	     20.99065355	      0.61719304	     28.44624967	     -2.92871885	    -22.97554068	    -22.25642729	     13.62526000	     -3.66027734	    -15.49047899	      1.01602761	     -0.00804354
      4.18000000	      2.47478607	     -1.42185477	      0.47788752	     -1.09219321	      0.90108370	     -0.04992136	    -10.01932416	      4.53634406	     -1.29388883	    -28.51672661	     22.01471652	     -0.19638336	     28.49779535	     -3.43035242	    -23.90935917	    -22.02877944	     13.90547218	     -3.65166943	    -15.62419478	      1.20984500	     -0.05925447
      4.19000000	      2.50632568	     -1.58896748	      0.38543746	     -1.10205871	      0.90153120	     -0.04854416	     -9.73479599	      4.82034535	     -1.45485494	    -27.90714561	     22.92704963	     -1.12660057	     28.52925903	     -3.80506607	    -24.54686315	    -22.04637574	     14.10159467	     -3.77896563	    -15.75815603	      1.33806165	     -0.21880769
      4.20000000	      2.57966474	     -1.69063550	      0.41147769	     -1.11153806	      0.90219228	     -0.04741382	     -9.53619620	      5.07408965	     -1.69543802	    -27.25294313	     23.69631355	     -2.09906035	     28.54119050	     -4.05793806	    -24.84869909	    -22.33482670	     14.20504293	     -4.06855311	    -15.91348922	      1.41111843	     -0.49299336
      4.21000000	      2.69411165	     -1.73069976	      0.54010535	     -1.12064277	      0.90308383	     -0.04651075	     -9.42586697	      5.28959403	     -2.01018055	    -26.54826974	     24.31578302	     -3.01188101	     28.53090495	     -4.19797042	    -24.79410292	    -22.88715212	     14.24092180	     -4.49927994	    -16.09232824	      1.43059284	     -0.85187428
      4.22000000	      2.84968955	     -1.72378872	      0.74680642	     -1.12941753	      0.90420932	     -0.04579861	     -9.39244131	      5.46906477	     -2.38988147	    -25.81141624	     24.80762970	     -3.87760737	     28.50005124	     -4.25064879	    -24.39965084	    -23.69592665	     14.23339144	     -5.07193116	    -16.30274454	      1.41042297	     -1.26275180
      4.23000000	      3.03738544	     -1.69119623	      1.01174281	     -1.13787340	      0.90556232	     -0.04526468	     -9.43548251	      5.62397529	     -2.81032082	    -25.02255794	     25.22736365	     -4.70917816	     28.44922914	     -4.22977302	    -23.64454595	    -24.72313826	     14.22121522	     -5.81083285	    -16.53379348	      1.37333880	     -1.66877843
      4.24000000	      3.25641437	     -1.63706314	      1.35348713	     -1.14603487	      0.90712359	     -0.04495094	     -9.54014696	      5.74580677	     -3.33613579	    -24.20887339	     25.45688182	     -5.35541680	     28.38765850	     -4.13297214	    -22.57680449	    -25.95759606	     14.20865772	     -6.58271803	    -16.78685483	      1.33790967	     -2.14878323
      4.25000000	      3.47965204	     -1.58744998	      1.69798562	     -1.15396535	      0.90885695	     -0.04473355	     -9.66594126	      5.85930284	     -3.83074829	    -23.38250566	     25.63314661	     -5.94525419	     28.32116185	     -3.99933304	    -21.23897803	    -27.33300403	     14.21947502	     -7.52113862	    -17.03960049	      1.31117938	     -2.54109093
      4.26000000	      3.69855244	     -1.54476209	      2.03806225	     -1.16168180	      0.91072385	     -0.04461896	     -9.78163994	      5.95245954	     -4.32979778	    -22.58589518	     25.66690574	     -6.35461659	     28.26051884	     -3.84328901	    -19.73753405	    -28.83951656	     14.24772306	     -8.42613441	    -17.28496802	      1.30222386	     -2.89026449
      4.27000000	      3.88878330	     -1.51890008	      2.34652648	     -1.16919654	      0.91267168	     -0.04456098	     -9.85106520	      6.03529868	     -4.77907713	    -21.83771230	     25.58846993	     -6.63066007	     28.21623593	     -3.68231744	    -18.14288351	    -30.43007745	     14.30931710	     -9.31584205	    -17.48960365	      1.31508364	     -3.16466060
      4.28000000	      4.04048582	     -1.52057784	      2.60241055	     -1.17655581	      0.91466190	     -0.04451499	     -9.84370194	      6.11588553	     -5.16595945	    -21.16979749	     25.41253394	     -6.78948402	     28.19272543	     -3.54077480	    -16.52624113	    -32.07622015	     14.39784698	    -10.16644635	    -17.65242200	      1.35286426	     -3.34647962
      4.29000000	      4.14295899	     -1.54662581	      2.79545040	     -1.18376252	      0.91666274	     -0.04446212	     -9.73993072	      6.19052060	     -5.47438463	    -20.59842635	     25.14557060	     -6.85055552	     28.18724488	     -3.42566459	    -14.94756320	    -33.74281356	     14.50811571	    -10.92583355	    -17.75963794	      1.40828112	     -3.43486271
      4.30000000	      4.19523379	     -1.59010888	      2.91252602	     -1.19081436	      0.91865923	     -0.04439216	     -9.54316113	      6.25068732	     -5.70069141	    -20.11630642	     24.80759562	     -6.84695805	     28.18823258	     -3.34378275	    -13.46912095	    -35.40139095	     14.65407083	    -11.62745574	    -17.81154779	      1.47373466	     -3.42959839
      4.31000000	      4.20260156	     -1.64338844	      2.95810275	     -1.19768893	      0.92063553	     -0.04428407	     -9.26410610	      6.29763465	     -5.83813857	    -19.72047825	     24.41996237	     -6.80471747	     28.17824773	     -3.29761901	    -12.12231142	    -37.02764675	     14.82225234	    -12.25772957	    -17.80774694	      1.53324748	     -3.35035176
      4.32000000	      4.17116859	     -1.69349877	      2.93335880	     -1.20438725	      0.92257872	     -0.04416030	     -8.91242324	      6.31766836	     -5.90629748	    -19.41037679	     23.97766489	     -6.75833148	     28.14195138	     -3.27921978	    -10.92746904	    -38.59824340	     15.02154265	    -12.78294417	    -17.75867736	      1.57999922	     -3.21755148
      4.33000000	      4.11382449	     -1.73476853	      2.86027708	     -1.21086676	      0.92448365	     -0.04401569	     -8.53739104	      6.32006409	     -5.91401324	    -19.12257631	     23.53050867	     -6.71832449	     28.06513801	     -3.28564427	     -9.88367158	    -40.10687589	     15.23953049	    -13.30645673	    -17.67200810	      1.60097752	     -3.04761174
      4.34000000	      4.06817470	     -1.75170759	      2.74798332	     -1.21713922	      0.92638612	     -0.04389858	     -8.17408780	      6.29019334	     -5.86963158	    -18.87552745	     23.08379577	     -6.71250994	     27.89933770	     -3.29552119	     -8.97598116	    -41.52859906	     15.45952061	    -13.75665977	    -17.59611802	      1.59586474	     -2.87662139
      4.35000000	      4.01037313	     -1.75900815	      2.62590219	     -1.22319789	      0.92819874	     -0.04379919	     -7.80851931	      6.25262589	     -5.81535028	    -18.64443641	     22.61779664	     -6.74925615	     27.69145151	     -3.31352466	     -8.15699226	    -42.88268103	     15.71662546	    -14.22406436	    -17.49891388	      1.57492692	     -2.73718235
      4.36000000	      3.94581675	     -1.72155519	      2.50105584	     -1.22903082	      0.92991982	     -0.04376986	     -7.44765335	      6.16614467	     -5.76450504	    -18.43414463	     22.16864760	     -6.84434317	     27.42026126	     -3.29152482	     -7.41883216	    -44.13667686	     16.02928655	    -14.71153531	    -17.38413975	      1.50732230	     -2.63847371
      4.37000000	      3.91279575	     -1.70164804	      2.41696059	     -1.23469040	      0.93155070	     -0.04382642	     -7.13930155	      6.10832085	     -5.75690645	    -18.21618534	     21.74697475	     -6.95811335	     27.09146667	     -3.28680458	     -6.69590098	    -45.34211082	     16.29946100	    -15.04460647	    -17.30520161	      1.47379102	     -2.58876227
